PathFileType	4	(X/Y/Z)	Patient4_TMGait_0pt5_02_left_17.trc.trc
DataRate	CameraRate	NumFrames	NumMarkers	Units	OrigDataRate	OrigDataStartFrame	OrigNumFrames
81.395348837209	81.395348837209	4	33	mm	81.395348837209	106	       141
Frame#	Time	Sacral			L.Shoulder			Chest			R.Shoulder			Neck			R.ASIS			L.ASIS			R.Thigh.Superior			R.Thigh.Lateral			R.Thigh.Inferior			R.Patella			L.Thigh.Superior			L.Thigh.Lateral			L.Thigh.Inferior			L.Patella			L.Shank.Superior			L.Shank.Lateral			L.Shank.Inferior			R.Shank.Superior			R.Shank.Lateral			R.Shank.Inferior			R.Heel			R.Midfoot.Superior			R.Midfoot.Lateral			R.Toe			L.Heel			L.Midfoot.Lateral			L.Midfoot.Superior			L.Toe			L.Elbow			L.Wrist			R.Elbow			R.Wrist			
		X1	Y1	Z1	X2	Y2	Z2	X3	Y3	Z3	X4	Y4	Z4	X5	Y5	Z5	X6	Y6	Z6	X7	Y7	Z7	X8	Y8	Z8	X9	Y9	Z9	X10	Y10	Z10	X11	Y11	Z11	X12	Y12	Z12	X13	Y13	Z13	X14	Y14	Z14	X15	Y15	Z15	X16	Y16	Z16	X17	Y17	Z17	X18	Y18	Z18	X19	Y19	Z19	X20	Y20	Z20	X21	Y21	Z21	X22	Y22	Z22	X23	Y23	Z23	X24	Y24	Z24	X25	Y25	Z25	X26	Y26	Z26	X27	Y27	Z27	X28	Y28	Z28	X29	Y29	Z29	X30	Y30	Z30	X31	Y31	Z31	X32	Y32	Z32	X33	Y33	Z33	

106	22.820000000000	632.127104919374	1020.918557353941	526.641666927816	843.131322884910	1431.669334597839	349.474135029714	936.722388856098	1357.988778268082	515.783414870240	852.596373602649	1440.274671502208	685.979610382821	837.258891143168	1495.531159787401	499.564004029829	849.451864934896	940.471257155956	650.700557019344	847.127638502010	962.251134149698	377.116782814235	880.317648002588	736.006331154484	622.143193155333	790.672747431451	634.077026031172	675.657372616777	867.351403676794	577.907599442933	597.348279355706	863.712488711602	491.340675998626	601.026059998028	922.344833011461	783.040013540256	415.151058591760	886.063083243873	657.932192147823	334.515422317241	981.513977396642	596.637701428475	407.736712698428	1001.201270324714	513.218826618548	401.748247610384	953.450421799432	441.188976810475	386.730554832356	836.262923377774	359.010505352583	327.953760345076	862.524231471794	230.856112984296	382.165181278640	834.946935324281	403.915019719143	606.441223971679	760.146828036594	300.504362063106	662.582261782343	803.838165813296	206.242222585505	599.978390016589	669.123068331467	43.242940179798	558.546057396369	838.078906987620	97.269933298082	606.777681353174	747.266252964618	36.422640910602	639.843528289892	955.693532076236	44.238682993647	643.018256086482	701.729268135070	106.448761289985	409.511985303170	773.264125546110	87.605515087255	329.969801703337	869.048098220056	126.857896570429	356.896791514930	979.212898675711	49.069102988747	326.954651589068	759.228534277898	1084.753774282867	239.514677056419	768.849025349915	826.191991551901	226.980995442528	831.367013912180	1112.781673025158	835.586626315336	1064.771488085339	1011.006948330819	816.938668732097	
107	22.832285714286	631.101693580090	1021.497016672126	527.871213324049	842.398764042081	1431.520691501687	349.512686337340	937.102578737857	1357.242257651749	514.942143164184	854.742450170415	1439.959499519189	685.868468770054	837.970877351392	1495.239972631027	499.675486060323	848.925738032153	940.031465232844	650.351883033278	845.051975609395	962.167467536563	376.791726252945	877.879497125811	735.233746140911	621.632429732690	787.823487290240	633.968435979669	675.905399600454	863.463481458522	577.216615119049	597.108051779378	859.159049461368	490.805195365248	600.898204389801	920.201068638536	783.826688657194	415.169807637270	884.690776959076	658.554991822419	334.255213116319	979.856050632322	597.782579583718	408.154723442208	1001.213590290306	515.962157345807	401.882525516872	956.771807720895	443.341586568834	386.533594986360	844.561279751541	354.873684466046	327.541016524898	877.886534812549	228.147967247451	381.953799531842	830.044643592611	403.475719114702	606.420034989880	755.037504273193	300.374984154977	662.720331709596	798.123140203536	205.946538078770	599.968226347471	662.948301136849	43.205533753630	558.603794169206	831.816723314556	97.182357435640	606.736379974715	741.052055334497	36.386366074201	639.890821842363	949.480126560703	44.207541091656	643.030792932127	724.447499450635	94.543792439358	409.362641086925	797.077911603201	79.919267228454	329.883706555193	890.415390262978	124.606633843925	356.841648330523	1004.977951796435	53.308008303874	327.089112675368	752.474335754214	1086.251073683733	239.706023618535	758.543819539597	827.602420633443	226.421605003582	837.868997971222	1113.477224257169	837.149026683579	1075.394067219385	1023.911326524530	816.513795080245	
108	22.844571428571	630.105299870576	1022.021923532411	528.927781890827	841.722762886242	1431.345389146035	349.451379771913	937.473119166894	1356.432006972970	514.007951219858	856.845054406658	1439.555216892571	685.649090049649	838.689012995790	1494.903576958033	499.697138335178	848.432779339150	939.583291701488	649.915202035406	843.061333056701	961.983465579708	376.351653344692	875.597461891685	734.460959753997	621.186377273375	785.055480196584	633.829537845189	676.088201401737	859.753880011257	576.500990180500	596.897193999621	854.758197264625	490.247485999170	600.752489772311	917.827965291739	784.284081860367	415.015664681473	882.976734252236	658.944427975910	333.731786303227	977.806333842601	598.587862972464	408.282337858559	1000.764738099343	518.473910049426	401.803685956937	959.651083639488	445.422453339290	386.312216280142	852.900365755933	350.906713544274	326.928630816129	892.916271105177	226.076079273836	381.900606399279	825.265403998244	403.015228745208	606.359624865365	750.025843490097	300.254607664012	662.831052261105	792.458899919315	205.639651061817	599.939284020028	656.784631495239	43.180942968889	558.677609280865	825.555067764746	97.082233000421	606.670558498977	734.847121013451	36.355434367916	639.933824518045	943.277395926439	44.147211694948	643.047106845453	747.136807281231	83.896896040953	409.120044235708	820.922764582332	73.269335412053	330.028301594268	911.441154083503	123.206652753191	357.214825398306	1030.029414654129	58.410027889189	328.292839272816	746.167676166179	1087.644505653358	240.064641551941	748.872262029195	828.965050956563	226.023462980103	844.430129222176	1113.960758949663	838.295660559176	1085.335601854245	1036.415891851238	815.723394736182	
109	22.856857142857	629.171044484056	1022.486699740253	529.814641613224	841.110836668725	1431.150159687423	349.275578268303	937.825074662440	1355.586881608069	512.991263336543	858.872531818956	1439.098095658619	685.310412053986	839.400475197176	1494.543631622981	499.608272165776	847.978738548034	939.143712460469	649.401792035737	841.181050384592	961.728944112345	375.804734596900	873.461452593198	733.689621010543	620.794289250489	782.356934113445	633.665179870874	676.192798674215	856.211609920304	575.760172493738	596.707479392428	850.500044625513	489.672492332867	600.578091586784	915.287439001973	784.438495004941	414.695958933187	880.996543535937	659.131365606892	332.950803804832	975.472341462362	599.075301605930	408.092977731503	999.906198858408	520.737524626605	401.519722301355	962.098951326522	447.423442127377	386.066852594419	861.175256177441	347.203933196182	326.139823537860	907.404908326311	224.674727501712	382.002720549267	820.607106476663	402.545380809675	606.253980074609	745.100501006458	300.149598982127	662.905090330762	786.845548076717	205.330586662750	599.887116515095	650.628358182824	43.169769499825	558.766417661083	819.299168616554	96.974140078416	606.586055715897	728.651088203793	36.331652540609	639.972957878404	937.084117887146	44.061023755365	643.068025609680	769.422670005989	74.654381967093	408.803241467122	844.438845234559	67.729597047542	330.414089202568	931.832465242931	122.659871369786	357.998358365547	1054.043171594090	64.269961797006	330.542380564814	740.368576613092	1088.909322011288	240.549264992263	739.899428542746	830.247638626931	225.776858887337	851.034510807597	1114.244190596324	838.995358969764	1094.615199437348	1048.403573959463	814.570960799096	
